<?xml version="1.0" encoding="UTF-8"?>
<svg width="512" height="512" viewBox="0 0 512 512" fill="none" xmlns="http://www.w3.org/2000/svg">
  <rect width="512" height="512" rx="100" fill="#1E3A8A"/>
  <path d="M256 106C173.157 106 106 173.157 106 256C106 338.843 173.157 406 256 406C338.843 406 406 338.843 406 256C406 173.157 338.843 106 256 106ZM256 376C189.726 376 136 322.274 136 256C136 189.726 189.726 136 256 136C322.274 136 376 189.726 376 256C376 322.274 322.274 376 256 376Z" fill="#3B82F6"/>
  <path d="M331 181H181V331H331V181Z" fill="#3B82F6"/>
  <path d="M256 206C228.386 206 206 228.386 206 256C206 283.614 228.386 306 256 306C283.614 306 306 283.614 306 256C306 228.386 283.614 206 256 206ZM256 286C239.458 286 226 272.542 226 256C226 239.458 239.458 226 256 226C272.542 226 286 239.458 286 256C286 272.542 272.542 286 256 286Z" fill="#10B981"/>
  <path d="M374.142 180.142L331.858 137.858L320 149.716L362.284 192L374.142 180.142Z" fill="#3B82F6"/>
  <path d="M192 362.284L149.716 320L137.858 331.858L180.142 374.142L192 362.284Z" fill="#3B82F6"/>
  <path d="M137.858 180.142L149.716 192L192 149.716L180.142 137.858L137.858 180.142Z" fill="#3B82F6"/>
  <path d="M362.284 320L320 362.284L331.858 374.142L374.142 331.858L362.284 320Z" fill="#3B82F6"/>
</svg>