<?xml version="1.0" encoding="UTF-8"?>
<svg width="24px" height="24px" viewBox="0 0 24 24" version="1.1" xmlns="http://www.w3.org/2000/svg" xmlns:xlink="http://www.w3.org/1999/xlink">
    <title>Bitcoin (BTC)</title>
    <g stroke="none" stroke-width="1" fill="none" fill-rule="evenodd">
        <circle fill="#F7931A" cx="12" cy="12" r="12"></circle>
        <path d="M16.5303,10.3757 C16.7157,8.879 15.5925,8.09635 14.0415,7.5759 L14.591,5.48182 L13.306,5.14232 L12.7691,7.18475 C12.4309,7.09815 12.0818,7.01687 11.7345,6.9363 L12.2744,4.8792 L10.9901,4.53965 L10.4406,6.63305 C10.1572,6.5681 9.8802,6.50455 9.6124,6.43745 L9.6134,6.4331 L7.8375,5.96055 L7.4783,7.3365 C7.4783,7.3365 8.4332,7.5501 8.4143,7.56365 C8.9291,7.69455 9.0133,8.03485 8.9983,8.30485 L8.3677,10.68 C8.4048,10.6899 8.454,10.704 8.5068,10.7265 L8.3664,10.6873 L7.4932,13.9425 C7.4366,14.103 7.2961,14.3352 6.9359,14.2466 C6.9485,14.2658 6.0023,14.0256 6.0023,14.0256 L5.3125,15.4943 L7.0004,15.9433 C7.3158,16.0238 7.6237,16.1086 7.9254,16.1879 L7.3704,18.3091 L8.654,18.6486 L9.2042,16.5511 C9.5556,16.6491 9.8959,16.7401 10.2276,16.8251 L9.6795,18.9081 L10.9645,19.2476 L11.5195,17.1307 C13.6329,17.5484 15.1942,17.3838 15.8889,15.4921 C16.4464,13.9596 15.889,13.0673 14.7935,12.4978 C15.6,12.0956 16.1977,11.3989 16.5305,10.3757 L16.5303,10.3757 Z M13.4754,14.5987 C13.0861,16.1312 10.3953,15.3033 9.5047,15.0851 L10.2462,12.2901 C11.1368,12.5103 13.883,13.0134 13.4754,14.5988 L13.4754,14.5987 Z M13.866,10.3589 C13.5162,11.7571 11.2674,11.0526 10.5266,10.8686 L11.1954,8.3523 C11.9361,8.5364 14.2312,8.9133 13.866,10.3589 Z" fill="#FFFFFF" fill-rule="nonzero"></path>
    </g>
</svg>