<?xml version="1.0" encoding="UTF-8"?>
<svg width="40px" height="40px" viewBox="0 0 40 40" version="1.1" xmlns="http://www.w3.org/2000/svg" xmlns:xlink="http://www.w3.org/1999/xlink">
    <title>AI Assistant Avatar</title>
    <defs>
        <linearGradient x1="0%" y1="0%" x2="100%" y2="100%" id="aiGradient">
            <stop stop-color="#1E88E5" offset="0%"></stop>
            <stop stop-color="#6A1B9A" offset="100%"></stop>
        </linearGradient>
    </defs>
    <g stroke="none" stroke-width="1" fill="none" fill-rule="evenodd">
        <circle fill="url(#aiGradient)" cx="20" cy="20" r="20"></circle>
        <g transform="translate(8, 10)" fill="#FFFFFF">
            <!-- Brain/Circuit pattern -->
            <circle cx="3" cy="3" r="1.5"></circle>
            <circle cx="12" cy="3" r="1.5"></circle>
            <circle cx="21" cy="3" r="1.5"></circle>
            <circle cx="3" cy="12" r="1.5"></circle>
            <circle cx="12" cy="12" r="1.5"></circle>
            <circle cx="21" cy="12" r="1.5"></circle>
            <circle cx="3" cy="21" r="1.5"></circle>
            <circle cx="12" cy="21" r="1.5"></circle>
            <circle cx="21" cy="21" r="1.5"></circle>
            
            <!-- Connection lines -->
            <rect x="4.5" y="3" width="6" height="0.75"></rect>
            <rect x="13.5" y="3" width="6" height="0.75"></rect>
            <rect x="3" y="4.5" width="0.75" height="6"></rect>
            <rect x="12" y="4.5" width="0.75" height="6"></rect>
            <rect x="21" y="4.5" width="0.75" height="6"></rect>
            <rect x="4.5" y="12" width="6" height="0.75"></rect>
            <rect x="13.5" y="12" width="6" height="0.75"></rect>
            <rect x="3" y="13.5" width="0.75" height="6"></rect>
            <rect x="12" y="13.5" width="0.75" height="6"></rect>
            <rect x="21" y="13.5" width="0.75" height="6"></rect>
            <rect x="4.5" y="21" width="6" height="0.75"></rect>
            <rect x="13.5" y="21" width="6" height="0.75"></rect>
            
            <!-- Diagonal connections -->
            <rect x="4" y="4" width="7" height="0.75" transform="rotate(45, 7.5, 4.375)"></rect>
            <rect x="13" y="4" width="7" height="0.75" transform="rotate(45, 16.5, 4.375)"></rect>
            <rect x="4" y="13" width="7" height="0.75" transform="rotate(45, 7.5, 13.375)"></rect>
            <rect x="13" y="13" width="7" height="0.75" transform="rotate(45, 16.5, 13.375)"></rect>
        </g>
    </g>
</svg>