<svg width="100" height="100" viewBox="0 0 100 100" xmlns="http://www.w3.org/2000/svg">
  <!-- Background circle -->
  <circle cx="50" cy="50" r="50" fill="#6200EA"/>
  
  <!-- Robot head -->
  <rect x="30" y="25" width="40" height="35" rx="5" fill="#FFFFFF"/>
  
  <!-- Robot antenna -->
  <line x1="50" y1="25" x2="50" y2="15" stroke="#FFFFFF" stroke-width="3"/>
  <circle cx="50" cy="12" r="4" fill="#FF9800"/>
  
  <!-- Robot eyes -->
  <circle cx="40" cy="40" r="6" fill="#6200EA"/>
  <circle cx="60" cy="40" r="6" fill="#6200EA"/>
  
  <!-- Robot mouth -->
  <rect x="38" y="50" width="24" height="4" rx="2" fill="#6200EA"/>
  
  <!-- Robot body -->
  <rect x="35" y="62" width="30" height="25" rx="3" fill="#FFFFFF"/>
  
  <!-- Robot neck -->
  <rect x="45" y="60" width="10" height="5" fill="#FFFFFF"/>
  
  <!-- Robot buttons -->
  <circle cx="43" cy="70" r="3" fill="#FF9800"/>
  <circle cx="50" cy="70" r="3" fill="#4CAF50"/>
  <circle cx="57" cy="70" r="3" fill="#F44336"/>
  
  <!-- Robot arms -->
  <line x1="35" y1="65" x2="20" y2="55" stroke="#FFFFFF" stroke-width="5" stroke-linecap="round"/>
  <line x1="65" y1="65" x2="80" y2="55" stroke="#FFFFFF" stroke-width="5" stroke-linecap="round"/>
  
  <!-- Circuit patterns -->
  <line x1="70" y1="35" x2="85" y2="30" stroke="#FFFFFF" stroke-width="1.5"/>
  <line x1="85" y1="30" x2="90" y2="40" stroke="#FFFFFF" stroke-width="1.5"/>
  
  <line x1="30" y1="35" x2="15" y2="30" stroke="#FFFFFF" stroke-width="1.5"/>
  <line x1="15" y1="30" x2="10" y2="40" stroke="#FFFFFF" stroke-width="1.5"/>
  
  <line x1="40" y1="87" x2="30" y2="95" stroke="#FFFFFF" stroke-width="1.5"/>
  <line x1="60" y1="87" x2="70" y2="95" stroke="#FFFFFF" stroke-width="1.5"/>
</svg>