<?xml version="1.0" encoding="UTF-8"?>
<svg xmlns="http://www.w3.org/2000/svg" viewBox="0 0 48 48">
  <path fill="#f7931a" d="M24 4C12.954 4 4 12.954 4 24s8.954 20 20 20 20-8.954 20-20S35.046 4 24 4z"/>
  <path fill="#fff" d="M30.638 24.826c.804-5.365-3.277-8.25-8.845-10.176l1.807-7.247-4.413-1.1-1.759 7.049-3.527-.879 1.762-7.064-4.411-1.1-1.807 7.245-2.823-.704-5.821-1.45-1.175 4.719s3.277.752 3.209.799c1.79.446 2.114 1.628 2.059 2.566l-2.062 8.271c.115.029.266.071.431.137-.138-.034-.285-.071-.437-.107l-2.891 11.589c-.219.542-.773 1.357-2.02.83.044.063-3.212-.802-3.212-.802l-2.191 5.06 5.491 1.37 2.818.703-1.82 7.308 4.41 1.1 1.807-7.25 3.493.877-1.803 7.228 4.413 1.1 1.82-7.297c7.291 1.381 12.772.823 15.094-5.772 1.865-5.319-.093-8.381-3.926-10.375 2.794-.646 4.902-2.482 5.466-6.259zm-9.773 13.642c-1.324 5.319-10.294 2.445-13.206 1.724l2.357-9.446c2.912.726 12.25 2.163 10.849 7.722zm1.326-13.805c-1.207 4.844-8.666 2.384-11.076 1.778l2.134-8.575c2.41.6 10.217 1.722 8.942 6.797z"/>
</svg>