<?xml version="1.0" encoding="UTF-8"?>
<svg xmlns="http://www.w3.org/2000/svg" id="Layer_1" data-name="Layer 1" viewBox="0 0 62.14 62.14">
  <defs>
    <style>.cls-1{fill:#f7931a;}.cls-2{fill:#fff;}</style>
  </defs>
  <title>bitcoin</title>
  <g id="Layer_2" data-name="Layer 2">
    <g id="Layer_1-2" data-name="Layer 1-2">
      <circle class="cls-1" cx="31.07" cy="31.07" r="31.07"/>
      <path class="cls-2" d="M23.46,17.32V14.11h4.77V8.59h4.58v5.42H37.6v3.31H32.81V8.62H27.91v8.7ZM34.79,44v9.33H30.21V44.05H25.43v-3.2h4.78V50H34.7v-9.21h4.59v3.2ZM43.44,29.2c-.27-1.3-1-1.89-2.19-2.17.91-.43,1.42-1.1,1.61-2.14a5.81,5.81,0,0,0-.23-3.16A3.86,3.86,0,0,0,40.68,20a8.2,8.2,0,0,0-3.68-.79H23V42.53H37.08c2.27,0,3.83-.7,4.77-2.19s.94-3.15.33-5.19a3.05,3.05,0,0,0-2.32-2.19,3.29,3.29,0,0,0,2.79-1.65A4.71,4.71,0,0,0,43.44,29.2Zm-6,6c.2,1.63-.54,2.64-2.28,2.64H28V35.12h6.91A2,2,0,0,1,37.4,35.24Zm.86-7.27a2.14,2.14,0,0,1-1,1.5,2.3,2.3,0,0,1-1.76.32H28v-4h6.89a2.28,2.28,0,0,1,2.19.72,1.9,1.9,0,0,1,.33,1C38.4,27.84,38.35,28.09,38.3,28Z"/>
    </g>
  </g>
</svg>