<?xml version="1.0" encoding="UTF-8"?>
<svg width="40px" height="40px" viewBox="0 0 40 40" version="1.1" xmlns="http://www.w3.org/2000/svg" xmlns:xlink="http://www.w3.org/1999/xlink">
    <title>FinTrustEX Logo</title>
    <defs>
        <linearGradient x1="0%" y1="0%" x2="100%" y2="100%" id="linearGradient-1">
            <stop stop-color="#1E3A8A" offset="0%"></stop>
            <stop stop-color="#3B82F6" offset="100%"></stop>
        </linearGradient>
    </defs>
    <g stroke="none" stroke-width="1" fill="none" fill-rule="evenodd">
        <rect fill="url(#linearGradient-1)" x="0" y="0" width="40" height="40" rx="8"></rect>
        <g transform="translate(8.000000, 8.000000)" fill="#FFFFFF" fill-rule="nonzero">
            <path d="M12,0 C18.6274,0 24,5.37258 24,12 C24,18.6274 18.6274,24 12,24 C5.37258,24 0,18.6274 0,12 C0,5.37258 5.37258,0 12,0 Z M12,3 C7.02944,3 3,7.02944 3,12 C3,16.9706 7.02944,21 12,21 C16.9706,21 21,16.9706 21,12 C21,7.02944 16.9706,3 12,3 Z" opacity="0.75"></path>
            <polygon points="12 5 16 9 12 13 8 9"></polygon>
            <polygon points="16 15 12 19 8 15 12 11"></polygon>
        </g>
    </g>
</svg>