<?xml version="1.0" encoding="UTF-8"?>
<svg xmlns="http://www.w3.org/2000/svg" viewBox="0 0 48 48">
  <circle fill="#50af95" cx="24" cy="24" r="20"/>
  <path fill="#fff" d="M28.2,24.385v-4.53h8.56v-4.91H11.2v4.91h8.56v4.53c-5.66,0.238-9.92,1.282-9.92,2.525c0,1.245,4.26,2.29,9.92,2.526v7.197h8.44v-7.197c5.66-0.236,9.92-1.281,9.92-2.526C38.12,25.667,33.86,24.623,28.2,24.385z M28.2,28.883v-0.002c-0.14,0.008-0.86,0.04-4.162,0.04c-2.16,0-3.66-0.022-4.22-0.038v0.002c-4.18-0.187-7.2-0.8-7.2-1.515c0-0.702,2.91-1.31,7.02-1.505v2.42c0.58,0.018,2.16,0.059,4.29,0.059c2.6,0,3.98-0.05,4.09-0.058v-2.424c4.09,0.196,7.02,0.8,7.02,1.507C34.84,28.087,32.32,28.695,28.2,28.883z"/>
</svg>