<?xml version="1.0" encoding="UTF-8"?>
<svg xmlns="http://www.w3.org/2000/svg" viewBox="0 0 339.43 295.27">
  <defs>
    <style>
      .cls-1 {
        fill: #26a17b;
      }
      .cls-2 {
        fill: #fff;
      }
    </style>
  </defs>
  <title>tether-usdt-logo</title>
  <g id="Layer_2" data-name="Layer 2">
    <g id="Layer_1-2" data-name="Layer 1">
      <path class="cls-1" d="M62.15,1.45l-61.69,130a2.52,2.52,0,0,0,.54,2.94L167.95,294.56a2.55,2.55,0,0,0,3.53,0L338.43,134.4a2.52,2.52,0,0,0,.54-2.94l-61.69-130A2.5,2.5,0,0,0,275,0H64.42A2.5,2.5,0,0,0,62.15,1.45Z"/>
      <path class="cls-2" d="M191.19,144.8v-28h65.34V87.32H82.91v29.46h65.36v28c-48.15,2.24-84.56,12.15-84.56,24s36.41,21.8,84.56,24.05v93.27h43v-93.2c48.38-2.25,85.06-12.16,85.06-24.11S239.57,147,191.19,144.8Zm0,39.35V184c-35.82,1.73-62.43,8.28-62.43,16,0,7.89,26.61,14.44,62.43,16.17v.13h.7v-.11c36.27-1.71,63.34-8.27,63.34-16.19,0-7.74-27.07-14.3-63.34-16Z"/>
    </g>
  </g>
</svg>